<svg version="1.1" id="Layer_1" xmlns="http://www.w3.org/2000/svg" xmlns:xlink="http://www.w3.org/1999/xlink" x="0px" y="0px"
	 width="100%" viewBox="0 0 608 608" enable-background="new 0 0 608 608" xml:space="preserve">
<path fill="#121212" opacity="1.000000" stroke="none" 
	d="
M371.000000,609.000000 
	C247.333328,609.000000 124.166664,609.000000 1.000000,609.000000 
	C1.000000,406.333344 1.000000,203.666672 1.000000,1.000000 
	C203.666672,1.000000 406.333344,1.000000 609.000000,1.000000 
	C609.000000,203.666672 609.000000,406.333344 609.000000,609.000000 
	C529.833313,609.000000 450.666656,609.000000 371.000000,609.000000 
M235.356400,376.790100 
	C232.925278,407.105743 230.494156,437.421356 228.045044,467.961304 
	C233.011353,467.961304 237.594162,467.961304 242.479767,467.961304 
	C242.685104,466.166626 242.924255,464.551147 243.047272,462.926880 
	C244.161591,448.211731 246.113434,433.453003 253.913544,420.751678 
	C264.347107,403.762299 276.025330,387.537170 287.198975,371.004059 
	C287.276306,370.889618 287.773651,371.059021 288.387299,371.134125 
	C291.005890,403.378510 293.628754,435.675568 296.242218,467.856812 
	C301.365570,467.856812 305.950684,467.856812 310.740997,467.856812 
	C301.067566,349.113770 291.421417,230.705582 281.779633,112.350731 
	C273.237457,112.350731 265.279541,112.350731 257.181580,112.350731 
	C257.047455,113.325180 256.899384,114.123734 256.832367,114.929039 
	C255.381882,132.358673 253.924973,149.787796 252.500488,167.219574 
	C249.326080,206.065659 246.170166,244.913254 243.004059,283.760010 
	C240.501572,314.464600 237.995132,345.168823 235.356400,376.790100 
M387.991882,368.332306 
	C386.490875,385.301666 384.989899,402.271027 383.488892,419.240387 
	C383.153107,419.219727 382.817322,419.199066 382.481537,419.178375 
	C373.754059,316.876526 365.026550,214.574677 356.313019,112.436356 
	C351.073151,112.436356 346.635162,112.436356 341.737396,112.436356 
	C351.992218,231.152573 362.219604,349.551483 372.442352,467.896362 
	C379.730927,467.896362 386.493927,467.896362 393.556183,467.896362 
	C403.882996,349.274963 414.187958,230.904449 424.500061,112.452194 
	C419.298828,112.452194 414.728546,112.452194 409.984650,112.452194 
	C408.138794,133.634109 406.296570,154.537384 404.500275,175.444595 
	C401.977325,204.810028 399.489380,234.178467 396.984589,263.545471 
	C395.570984,280.119049 394.169342,296.693665 392.733856,313.265350 
	C391.170563,331.312744 389.574249,349.357269 387.991882,368.332306 
M161.016037,324.500000 
	C161.016037,258.743713 161.016037,192.987411 161.016037,126.779381 
	C173.352554,126.779381 185.248550,126.779381 197.287338,126.779381 
	C197.287338,121.734108 197.287338,117.143646 197.287338,112.429947 
	C168.167618,112.429947 139.288879,112.429947 110.373398,112.429947 
	C110.373398,117.304977 110.373398,121.893219 110.373398,126.983917 
	C122.494949,126.983917 134.398376,126.983917 146.562805,126.983917 
	C146.562805,240.895660 146.562805,354.299072 146.562805,467.944458 
	C151.452881,467.944458 156.068298,467.944458 161.016037,467.944458 
	C161.016037,420.409027 161.016037,372.954498 161.016037,324.500000 
M449.991394,462.431763 
	C449.991394,464.220459 449.991394,466.009186 449.991394,467.843567 
	C467.139282,467.843567 483.840271,467.843567 500.595520,467.843567 
	C500.595520,463.083221 500.595520,458.659149 500.595520,453.835083 
	C488.588287,453.835083 476.819916,453.835083 464.801422,453.835083 
	C464.915344,451.455994 464.905823,449.480621 465.119415,447.529633 
	C467.472473,426.031525 469.837433,404.534637 472.243683,383.042419 
	C476.445892,345.508942 480.709290,307.982239 484.892029,270.446594 
	C490.182526,222.970154 495.471069,175.493286 500.601685,127.999458 
	C501.162262,122.810226 500.677338,117.508057 500.677338,112.425163 
	C483.538330,112.425163 466.941925,112.425163 450.240784,112.425163 
	C450.240784,117.275345 450.240784,121.855164 450.240784,126.957184 
	C462.372253,126.957184 474.266327,126.957184 486.467682,126.957184 
	C485.275391,137.426559 484.117767,147.337906 483.022797,157.256149 
	C480.211639,182.718948 477.460754,208.188400 474.625122,233.648453 
	C471.457092,262.092712 468.210785,290.528229 465.019684,318.969940 
	C461.809082,347.585175 458.518677,376.192078 455.465973,404.824249 
	C453.455444,423.681213 451.803741,442.576447 449.991394,462.431763 
z"/>
<path fill="#F8F7F8" opacity="1.000000" stroke="none" 
	d="
M235.423431,376.331665 
	C237.995132,345.168823 240.501572,314.464600 243.004059,283.760010 
	C246.170166,244.913254 249.326080,206.065659 252.500488,167.219574 
	C253.924973,149.787796 255.381882,132.358673 256.832367,114.929039 
	C256.899384,114.123734 257.047455,113.325180 257.181580,112.350731 
	C265.279541,112.350731 273.237457,112.350731 281.779633,112.350731 
	C291.421417,230.705582 301.067566,349.113770 310.740997,467.856812 
	C305.950684,467.856812 301.365570,467.856812 296.242218,467.856812 
	C293.628754,435.675568 291.005890,403.378510 288.387299,371.134125 
	C287.773651,371.059021 287.276306,370.889618 287.198975,371.004059 
	C276.025330,387.537170 264.347107,403.762299 253.913544,420.751678 
	C246.113434,433.453003 244.161591,448.211731 243.047272,462.926880 
	C242.924255,464.551147 242.685104,466.166626 242.479767,467.961304 
	C237.594162,467.961304 233.011353,467.961304 228.045044,467.961304 
	C230.494156,437.421356 232.925278,407.105743 235.423431,376.331665 
M267.653656,161.135513 
	C265.116333,192.177124 262.562500,223.217392 260.045471,254.260651 
	C256.235870,301.245605 252.451569,348.232635 248.657959,395.218903 
	C248.498489,397.194031 248.353622,399.170319 248.105530,402.401947 
	C258.885101,386.541290 268.883850,371.832550 278.879059,357.121399 
	C283.055206,350.974823 284.810699,344.100250 284.454895,336.771729 
	C283.801147,323.305420 283.106506,309.836029 282.094055,296.393158 
	C278.716919,251.552704 275.199799,206.722824 271.713196,161.890671 
	C271.230774,155.687775 270.618164,149.494980 270.065826,143.297516 
	C269.735107,143.311966 269.404419,143.326416 269.073730,143.340866 
	C268.629974,148.963562 268.186218,154.586243 267.653656,161.135513 
z"/>
<path fill="#F8F7F8" opacity="1.000000" stroke="none" 
	d="
M387.992096,367.867676 
	C389.574249,349.357269 391.170563,331.312744 392.733856,313.265350 
	C394.169342,296.693665 395.570984,280.119049 396.984589,263.545471 
	C399.489380,234.178467 401.977325,204.810028 404.500275,175.444595 
	C406.296570,154.537384 408.138794,133.634109 409.984650,112.452194 
	C414.728546,112.452194 419.298828,112.452194 424.500061,112.452194 
	C414.187958,230.904449 403.882996,349.274963 393.556183,467.896362 
	C386.493927,467.896362 379.730927,467.896362 372.442352,467.896362 
	C362.219604,349.551483 351.992218,231.152573 341.737396,112.436356 
	C346.635162,112.436356 351.073151,112.436356 356.313019,112.436356 
	C365.026550,214.574677 373.754059,316.876526 382.481537,419.178375 
	C382.817322,419.199066 383.153107,419.219727 383.488892,419.240387 
	C384.989899,402.271027 386.490875,385.301666 387.992096,367.867676 
z"/>
<path fill="#F4F3F4" opacity="1.000000" stroke="none" 
	d="
M161.016037,325.000000 
	C161.016037,372.954498 161.016037,420.409027 161.016037,467.944458 
	C156.068298,467.944458 151.452881,467.944458 146.562805,467.944458 
	C146.562805,354.299072 146.562805,240.895660 146.562805,126.983917 
	C134.398376,126.983917 122.494949,126.983917 110.373398,126.983917 
	C110.373398,121.893219 110.373398,117.304977 110.373398,112.429947 
	C139.288879,112.429947 168.167618,112.429947 197.287338,112.429947 
	C197.287338,117.143646 197.287338,121.734108 197.287338,126.779381 
	C185.248550,126.779381 173.352554,126.779381 161.016037,126.779381 
	C161.016037,192.987411 161.016037,258.743713 161.016037,325.000000 
z"/>
<path fill="#F8F7F8" opacity="1.000000" stroke="none" 
	d="
M449.991394,461.943146 
	C451.803741,442.576447 453.455444,423.681213 455.465973,404.824249 
	C458.518677,376.192078 461.809082,347.585175 465.019684,318.969940 
	C468.210785,290.528229 471.457092,262.092712 474.625122,233.648453 
	C477.460754,208.188400 480.211639,182.718948 483.022797,157.256149 
	C484.117767,147.337906 485.275391,137.426559 486.467682,126.957184 
	C474.266327,126.957184 462.372253,126.957184 450.240784,126.957184 
	C450.240784,121.855164 450.240784,117.275345 450.240784,112.425163 
	C466.941925,112.425163 483.538330,112.425163 500.677338,112.425163 
	C500.677338,117.508057 501.162262,122.810226 500.601685,127.999458 
	C495.471069,175.493286 490.182526,222.970154 484.892029,270.446594 
	C480.709290,307.982239 476.445892,345.508942 472.243683,383.042419 
	C469.837433,404.534637 467.472473,426.031525 465.119415,447.529633 
	C464.905823,449.480621 464.915344,451.455994 464.801422,453.835083 
	C476.819916,453.835083 488.588287,453.835083 500.595520,453.835083 
	C500.595520,458.659149 500.595520,463.083221 500.595520,467.843567 
	C483.840271,467.843567 467.139282,467.843567 449.991394,467.843567 
	C449.991394,466.009186 449.991394,464.220459 449.991394,461.943146 
z"/>
<path fill="#161616" opacity="1.000000" stroke="none" 
	d="
M267.698059,160.672226 
	C268.186218,154.586243 268.629974,148.963562 269.073730,143.340866 
	C269.404419,143.326416 269.735107,143.311966 270.065826,143.297516 
	C270.618164,149.494980 271.230774,155.687775 271.713196,161.890671 
	C275.199799,206.722824 278.716919,251.552704 282.094055,296.393158 
	C283.106506,309.836029 283.801147,323.305420 284.454895,336.771729 
	C284.810699,344.100250 283.055206,350.974823 278.879059,357.121399 
	C268.883850,371.832550 258.885101,386.541290 248.105530,402.401947 
	C248.353622,399.170319 248.498489,397.194031 248.657959,395.218903 
	C252.451569,348.232635 256.235870,301.245605 260.045471,254.260651 
	C262.562500,223.217392 265.116333,192.177124 267.698059,160.672226 
z"/>
</svg>